<svg width="1200" height="320" viewBox="0 0 1200 320" xmlns="http://www.w3.org/2000/svg">
  <defs>
    <linearGradient id="bgGrad" x1="0%" y1="0%" x2="100%" y2="100%">
      <stop offset="0%" stop-color="#05030A"></stop>
      <stop offset="50%" stop-color="#0b0618"></stop>
      <stop offset="100%" stop-color="#120921"></stop>
    </linearGradient>

    <linearGradient id="accentGrad" x1="0%" y1="0%" x2="100%" y2="0%">
      <stop offset="0%" stop-color="#ff9cf5"></stop>
      <stop offset="50%" stop-color="#c47bff"></stop>
      <stop offset="100%" stop-color="#6fd6ff"></stop>
    </linearGradient>

    <linearGradient id="frameGrad" x1="0%" y1="0%" x2="100%" y2="0%">
      <stop offset="0%" stop-color="#312352"></stop>
      <stop offset="100%" stop-color="#1e263f"></stop>
    </linearGradient>

    <filter id="glow">
      <feGaussianBlur stdDeviation="6" result="blur"></feGaussianBlur>
      <feColorMatrix in="blur" type="matrix" values="0 0 0 0 1
                0 0 0 0 0.7
                0 0 0 0 1
                0 0 0 0.7 0"></feColorMatrix>
    </filter>
  </defs>

  <!-- Background -->
  <rect x="0" y="0" width="1200" height="320" fill="url(#bgGrad)"></rect>

  <!-- Subtle grid -->
  <g opacity="0.12">
    <!-- vertical lines -->
    <g stroke="#4b3c70" stroke-width="0.5">
      <line x1="80" y1="0" x2="80" y2="320"></line>
      <line x1="160" y1="0" x2="160" y2="320"></line>
      <line x1="240" y1="0" x2="240" y2="320"></line>
      <line x1="320" y1="0" x2="320" y2="320"></line>
      <line x1="400" y1="0" x2="400" y2="320"></line>
      <line x1="480" y1="0" x2="480" y2="320"></line>
      <line x1="560" y1="0" x2="560" y2="320"></line>
      <line x1="640" y1="0" x2="640" y2="320"></line>
      <line x1="720" y1="0" x2="720" y2="320"></line>
      <line x1="800" y1="0" x2="800" y2="320"></line>
      <line x1="880" y1="0" x2="880" y2="320"></line>
      <line x1="960" y1="0" x2="960" y2="320"></line>
      <line x1="1040" y1="0" x2="1040" y2="320"></line>
      <line x1="1120" y1="0" x2="1120" y2="320"></line>
    </g>
    <!-- horizontal lines -->
    <g stroke="#4b3c70" stroke-width="0.5">
      <line x1="0" y1="60" x2="1200" y2="60"></line>
      <line x1="0" y1="120" x2="1200" y2="120"></line>
      <line x1="0" y1="180" x2="1200" y2="180"></line>
      <line x1="0" y1="240" x2="1200" y2="240"></line>
      <line x1="0" y1="300" x2="1200" y2="300"></line>
    </g>
  </g>

  <!-- Framed panel -->
  <rect x="80" y="60" width="1040" height="200" rx="18" ry="18" fill="url(#frameGrad)" stroke="#6940a8" stroke-width="1.2"></rect>
  <rect x="88" y="68" width="1024" height="184" rx="14" ry="14" fill="none" stroke="#a47bff" stroke-opacity="0.6" stroke-width="1" stroke-dasharray="4 6"></rect>

  <!-- Accent glow bar -->
  <rect x="80" y="56" width="260" height="4" fill="url(#accentGrad)" filter="url(#glow)" opacity="0.9"></rect>

  <!-- Left tag -->
  <rect x="110" y="88" width="170" height="30" rx="8" ry="8" fill="#140f26" stroke="#c47bff" stroke-width="1"></rect>
  <text x="125" y="108" fill="#d8c9ff" font-family="monospace" font-size="13">
    livey · personal node
  </text>

  <!-- Main title -->
  <text x="110" y="152" fill="#ffffff" font-family="monospace" font-size="32">
    ind4skylivey.github.io
  </text>

  <!-- Subtitle -->
  <text x="110" y="186" fill="#d8c9ff" font-family="monospace" font-size="16">
    cybersecurity · ai workflows · linux · php/laravel
  </text>

  <!-- Right side "terminal" block -->
  <rect x="760" y="88" width="320" height="132" rx="10" ry="10" fill="#0b0a16" stroke="#3e335f" stroke-width="1"></rect>
  <circle cx="778" cy="104" r="4" fill="#ff5f6c"></circle>
  <circle cx="792" cy="104" r="4" fill="#ffc668"></circle>
  <circle cx="806" cy="104" r="4" fill="#4cd964"></circle>

  <text x="778" y="128" fill="#9be8ff" font-family="monospace" font-size="13">
    livey@node:~$ tail -f /now
  </text>
  <text x="778" y="148" fill="#e6d4ff" font-family="monospace" font-size="13">
    • red team &amp; reverse engineering
  </text>
  <text x="778" y="166" fill="#e6d4ff" font-family="monospace" font-size="13">
    • local ai assistants for dev flow
  </text>
  <text x="778" y="184" fill="#e6d4ff" font-family="monospace" font-size="13">
    • linux tuning &amp; gamer optimizations
  </text>
  <text x="778" y="202" fill="#e6d4ff" font-family="monospace" font-size="13">
    • php / laravel daily craftsmanship
  </text>

  <!-- Small corner label -->
  <text x="1040" y="242" fill="#8a7ac7" font-family="monospace" font-size="11">
    s1bgr0up.inc · research
  </text>
</svg>
